<svg id="圖層_1" data-name="圖層 1" xmlns="http://www.w3.org/2000/svg" viewBox="0 0 2556.19 585.56"><defs><style>.cls-1{opacity:0.1;}.cls-2,.cls-3,.cls-5{fill:none;stroke:#000;}.cls-2{stroke-width:2px;}.cls-4{font-size:12px;font-family:AdobeFanHeitiStd-Bold-B5pc-H, Adobe Fan Heiti Std;}.cls-5{stroke-linecap:square;}.cls-6{letter-spacing:0.02em;}</style></defs><title>fit_browser_vmax</title><rect class="cls-1" x="143.59" y="175.56" width="112" height="112"/><g id="iphone"><path id="bezel" class="cls-2" d="M292,409.88a16,16,0,0,1-16.06,16H178.06a16,16,0,0,1-16.06-16V168a16,16,0,0,1,16.06-16h97.88A16,16,0,0,1,292,168V409.88Z" transform="translate(-26.91 -11.94)"/><rect id="screen" class="cls-3" x="144.08" y="175.98" width="111.93" height="199.08"/><path id="speaker" class="cls-3" d="M239,177.67a1.07,1.07,0,0,1-1,1.15h-20.1a1.07,1.07,0,0,1-1-1.15v-2.58a1.07,1.07,0,0,1,1-1.15H238a1.07,1.07,0,0,1,1,1.15v2.58Z" transform="translate(-26.91 -11.94)"/><circle id="camera" class="cls-3" cx="201.08" cy="151.98" r="3"/><ellipse id="lock" class="cls-3" cx="200.12" cy="393.98" rx="10.04" ry="10"/></g><text class="cls-4" transform="translate(158.03 101.56)">width: 100vmin</text><text class="cls-4" transform="translate(0 234.56)">height: 100vmin</text><text class="cls-4" transform="translate(378 234.56)">height: 100vmin</text><g id="Laptop"><path id="bezel-2" data-name="bezel" class="cls-2" d="M1132,55H636a25.08,25.08,0,0,0-25,24.79V406h546V79.79A25.05,25.05,0,0,0,1132,55Z" transform="translate(-26.91 -11.94)"/><circle id="webcam" class="cls-2" cx="858.09" cy="62.06" r="4"/><g id="bottom"><path id="Shape" class="cls-2" d="M1178.81,437H589.29C558.64,437,538,426.49,538,422V408.43a2.75,2.75,0,0,1,3-2.43H1227.1a2.75,2.75,0,0,1,3,2.43v14.13C1230.1,426.09,1214.11,437,1178.81,437Z" transform="translate(-26.91 -11.94)"/><path id="Line" class="cls-5" d="M538.5,420.5h689.74" transform="translate(-26.91 -11.94)"/></g><rect id="screen-2" data-name="screen" class="cls-3" x="606.09" y="82.06" width="501.07" height="292.01"/><path id="touchpad" class="cls-3" d="M959,407v3.09c0,2.2-4.33,2.87-7.61,2.87H816.82c-3.45,0-7.82-.66-7.82-2.87V407" transform="translate(-26.91 -11.94)"/></g><rect class="cls-1" x="606.09" y="82.06" width="292" height="292"/><line class="cls-3" x1="606.59" y1="11.06" x2="606.59" y2="30.06"/><line class="cls-3" x1="898.09" y1="11.06" x2="898.09" y2="30.06"/><line class="cls-3" x1="606.59" y1="20.56" x2="898.09" y2="20.56"/><line class="cls-3" x1="491.84" y1="82.06" x2="472.84" y2="82.06"/><line class="cls-3" x1="491.84" y1="374.06" x2="472.84" y2="374.06"/><line class="cls-3" x1="482.34" y1="82.06" x2="482.34" y2="374.06"/><text class="cls-4" transform="translate(710.03 10.56)">width: 100vmin</text><rect class="cls-1" x="1495.59" y="177.56" width="199.5" height="199.5"/><g id="iphone-2" data-name="iphone"><path id="bezel-3" data-name="bezel" class="cls-2" d="M1644,411.88a16,16,0,0,1-16.06,16h-97.88a16,16,0,0,1-16.06-16V170a16,16,0,0,1,16.06-16h97.88A16,16,0,0,1,1644,170V411.88Z" transform="translate(-26.91 -11.94)"/><rect id="screen-3" data-name="screen" class="cls-3" x="1496.08" y="177.98" width="111.93" height="199.08"/><path id="speaker-2" data-name="speaker" class="cls-3" d="M1591,179.67a1.07,1.07,0,0,1-1,1.15h-20.1a1.07,1.07,0,0,1-1-1.15v-2.58a1.07,1.07,0,0,1,1-1.15H1590a1.07,1.07,0,0,1,1,1.15v2.58Z" transform="translate(-26.91 -11.94)"/><circle id="camera-2" data-name="camera" class="cls-3" cx="1553.08" cy="153.98" r="3"/><ellipse id="lock-2" data-name="lock" class="cls-3" cx="1552.12" cy="395.98" rx="10.04" ry="10"/></g><text class="cls-4" transform="translate(1551.97 103.56)">width: 100vmax</text><text class="cls-4" transform="translate(1355.94 277.56)">height: 100vmax</text><text class="cls-4" transform="translate(1728.94 334.56)">height: 100vmax</text><g id="Laptop-2" data-name="Laptop"><path id="bezel-4" data-name="bezel" class="cls-2" d="M2484,57H1988a25.08,25.08,0,0,0-25,24.79V408h546V81.79A25.05,25.05,0,0,0,2484,57Z" transform="translate(-26.91 -11.94)"/><circle id="webcam-2" data-name="webcam" class="cls-2" cx="2210.09" cy="64.06" r="4"/><g id="bottom-2" data-name="bottom"><path id="Shape-2" data-name="Shape" class="cls-2" d="M2530.81,439H1941.29c-30.65,0-51.29-10.52-51.29-15V410.43a2.75,2.75,0,0,1,3-2.43H2579.1a2.75,2.75,0,0,1,3,2.43v14.13C2582.1,428.09,2566.11,439,2530.81,439Z" transform="translate(-26.91 -11.94)"/><path id="Line-2" data-name="Line" class="cls-5" d="M1890.5,422.5h689.74" transform="translate(-26.91 -11.94)"/></g><rect id="screen-4" data-name="screen" class="cls-3" x="1958.09" y="84.06" width="501.07" height="292.01"/><path id="touchpad-2" data-name="touchpad" class="cls-3" d="M2311,409v3.09c0,2.2-4.33,2.87-7.61,2.87H2168.82c-3.45,0-7.82-.66-7.82-2.87V409" transform="translate(-26.91 -11.94)"/></g><rect class="cls-1" x="1958.09" y="84.06" width="501" height="501"/><line class="cls-3" x1="1958.59" y1="6.25" x2="1958.59" y2="38.87"/><line class="cls-3" x1="2459.09" y1="6.25" x2="2459.09" y2="38.87"/><line class="cls-3" x1="1958.59" y1="22.56" x2="2459.09" y2="22.56"/><line class="cls-3" x1="1850.64" y1="84.06" x2="1818.04" y2="84.06"/><line class="cls-3" x1="1850.64" y1="585.06" x2="1818.04" y2="585.06"/><line class="cls-3" x1="1834.34" y1="84.06" x2="1834.34" y2="585.06"/><text class="cls-4" transform="translate(2166.85 12.56)">width: 100v<tspan class="cls-6" x="63.9" y="0">m</tspan><tspan x="74.95" y="0">ax</tspan></text><line class="cls-3" x1="1494.59" y1="112.06" x2="1494.59" y2="131.06"/><line class="cls-3" x1="1695.09" y1="112.06" x2="1695.09" y2="131.06"/><line class="cls-3" x1="1494.59" y1="121.56" x2="1695.09" y2="121.56"/><line class="cls-3" x1="1467.34" y1="178.31" x2="1448.34" y2="178.31"/><line class="cls-3" x1="1467.34" y1="378.81" x2="1448.34" y2="378.81"/><line class="cls-3" x1="1457.84" y1="178.31" x2="1457.84" y2="378.81"/><line class="cls-3" x1="143.59" y1="103.06" x2="143.59" y2="122.06"/><line class="cls-3" x1="256.09" y1="103.06" x2="256.09" y2="122.06"/><line class="cls-3" x1="143.59" y1="112.56" x2="256.09" y2="112.56"/><line class="cls-3" x1="115.34" y1="175.31" x2="96.34" y2="175.31"/><line class="cls-3" x1="115.34" y1="287.81" x2="96.34" y2="287.81"/><line class="cls-3" x1="105.84" y1="175.31" x2="105.84" y2="287.81"/></svg>