<svg xmlns="http://www.w3.org/2000/svg" viewBox="0 0 1204.19 426.07"><defs><style>.cls-1{opacity:0.1;}.cls-2,.cls-3,.cls-5{fill:none;stroke:#000;}.cls-2{stroke-width:2px;}.cls-4{font-size:12px;font-family:AdobeFanHeitiStd-Bold-B5pc-H, Adobe Fan Heiti Std;}.cls-5{stroke-linecap:square;}</style></defs><title>資產 1</title><g id="圖層_2" data-name="圖層 2"><g id="圖層_1-2" data-name="圖層 1"><rect class="cls-1" x="143.59" y="175.56" width="112" height="112"/><g id="iphone"><path id="bezel" class="cls-2" d="M265.08,397.94a16,16,0,0,1-16.06,16H151.15a16,16,0,0,1-16.06-16V156.05a16,16,0,0,1,16.06-16H249a16,16,0,0,1,16.06,16V397.94Z"/><rect id="screen" class="cls-3" x="144.08" y="175.98" width="111.93" height="199.08"/><path id="speaker" class="cls-3" d="M212.08,165.73a1.07,1.07,0,0,1-1,1.15H191a1.07,1.07,0,0,1-1-1.15v-2.58a1.07,1.07,0,0,1,1-1.15h20.1a1.07,1.07,0,0,1,1,1.15v2.58Z"/><circle id="camera" class="cls-3" cx="201.08" cy="151.98" r="3"/><ellipse id="lock" class="cls-3" cx="200.12" cy="393.98" rx="10.04" ry="10"/></g><text class="cls-4" transform="translate(158.03 101.56)">width: 100vmin</text><text class="cls-4" transform="translate(0 234.56)">height: 100vmin</text><text class="cls-4" transform="translate(378 234.56)">height: 100vmin</text><g id="Laptop"><path id="bezel-2" data-name="bezel" class="cls-2" d="M1105.09,43.06h-496a25.08,25.08,0,0,0-25,24.79V394.09h546V67.85A25.05,25.05,0,0,0,1105.09,43.06Z"/><circle id="webcam" class="cls-2" cx="858.09" cy="62.06" r="4"/><g id="bottom"><path id="Shape" class="cls-2" d="M1151.9,425.07H562.37c-30.65,0-51.29-10.52-51.29-15V396.49a2.75,2.75,0,0,1,3-2.43h686.11a2.75,2.75,0,0,1,3,2.43v14.13C1203.18,414.15,1187.2,425.07,1151.9,425.07Z"/><path id="Line" class="cls-5" d="M511.59,408.56h689.74"/></g><rect id="screen-2" data-name="screen" class="cls-3" x="606.09" y="82.06" width="501.07" height="292.01"/><path id="touchpad" class="cls-3" d="M932.09,395.06v3.09c0,2.2-4.33,2.87-7.61,2.87H789.9c-3.45,0-7.82-.66-7.82-2.87v-3.09"/></g><rect class="cls-1" x="606.09" y="82.06" width="292" height="292"/><line class="cls-3" x1="606.59" y1="11.06" x2="606.59" y2="30.06"/><line class="cls-3" x1="898.09" y1="11.06" x2="898.09" y2="30.06"/><line class="cls-3" x1="606.59" y1="20.56" x2="898.09" y2="20.56"/><line class="cls-3" x1="491.84" y1="82.06" x2="472.84" y2="82.06"/><line class="cls-3" x1="491.84" y1="374.06" x2="472.84" y2="374.06"/><line class="cls-3" x1="482.34" y1="82.06" x2="482.34" y2="374.06"/><text class="cls-4" transform="translate(710.03 10.56)">width: 100vmin</text><line class="cls-3" x1="143.59" y1="103.06" x2="143.59" y2="122.06"/><line class="cls-3" x1="256.09" y1="103.06" x2="256.09" y2="122.06"/><line class="cls-3" x1="143.59" y1="112.56" x2="256.09" y2="112.56"/><line class="cls-3" x1="115.34" y1="175.31" x2="96.34" y2="175.31"/><line class="cls-3" x1="115.34" y1="287.81" x2="96.34" y2="287.81"/><line class="cls-3" x1="105.84" y1="175.31" x2="105.84" y2="287.81"/></g></g></svg>