<svg width="2812" height="416" xmlns="http://www.w3.org/2000/svg" xmlns:xlink="http://www.w3.org/1999/xlink" xml:space="preserve" overflow="hidden"><g transform="translate(-413 -983)"><rect x="416.5" y="986.5" width="2805" height="409" stroke="#000000" stroke-width="6.875" stroke-miterlimit="8" fill="#F2F2F2"/><rect x="517.5" y="1091.5" width="494" height="198" stroke="#000000" stroke-width="6.875" stroke-miterlimit="8" fill="#BFBFBF"/><text font-family="Consolas,Consolas_MSFontService,sans-serif" font-weight="400" font-size="55" transform="matrix(1 0 0 1 551.522 1209)">flex</text><text font-family="Consolas,Consolas_MSFontService,sans-serif" font-weight="400" font-size="55" transform="matrix(1 0 0 1 672.98 1209)">-</text><text font-family="Consolas,Consolas_MSFontService,sans-serif" font-weight="400" font-size="55" transform="matrix(1 0 0 1 703.345 1209)">basis:20%</text><rect x="1043.5" y="1091.5" width="493" height="198" stroke="#000000" stroke-width="6.875" stroke-miterlimit="8" fill="#BFBFBF"/><text font-family="Consolas,Consolas_MSFontService,sans-serif" font-weight="400" font-size="55" transform="matrix(1 0 0 1 1076.77 1209)">flex</text><text font-family="Consolas,Consolas_MSFontService,sans-serif" font-weight="400" font-size="55" transform="matrix(1 0 0 1 1198.23 1209)">-</text><text font-family="Consolas,Consolas_MSFontService,sans-serif" font-weight="400" font-size="55" transform="matrix(1 0 0 1 1228.6 1209)">basis:20%</text><rect x="1569.5" y="1091.5" width="493" height="198" stroke="#000000" stroke-width="6.875" stroke-miterlimit="8" fill="#BFBFBF"/><text font-family="Consolas,Consolas_MSFontService,sans-serif" font-weight="400" font-size="55" transform="matrix(1 0 0 1 1603.18 1209)">flex</text><text font-family="Consolas,Consolas_MSFontService,sans-serif" font-weight="400" font-size="55" transform="matrix(1 0 0 1 1724.64 1209)">-</text><text font-family="Consolas,Consolas_MSFontService,sans-serif" font-weight="400" font-size="55" transform="matrix(1 0 0 1 1755.01 1209)">basis:20%</text><rect x="2095.5" y="1091.5" width="1020" height="198" stroke="#000000" stroke-width="6.875" stroke-miterlimit="8" stroke-dasharray="27.5 20.625" fill="none"/><text font-family="Aptos,Aptos_MSFontService,sans-serif" font-weight="400" font-size="55" transform="matrix(1 0 0 1 2409.7 1208)">Remainder: 40%</text></g></svg>