<svg xmlns="http://www.w3.org/2000/svg" viewBox="0 0 1200.25 583.56"><defs><style>.cls-1{opacity:0.1;}.cls-2,.cls-3,.cls-5{fill:none;stroke:#000;}.cls-2{stroke-width:2px;}.cls-4{font-size:12px;font-family:AdobeFanHeitiStd-Bold-B5pc-H, Adobe Fan Heiti Std;}.cls-5{stroke-linecap:square;}.cls-6{letter-spacing:0.02em;}</style></defs><title>資產 2</title><g id="圖層_2" data-name="圖層 2"><g id="圖層_1-2" data-name="圖層 1"><rect class="cls-1" x="139.65" y="175.56" width="199.5" height="199.5"/><g id="iphone"><path id="bezel" class="cls-2" d="M261.15,397.94a16,16,0,0,1-16.06,16H147.21a16,16,0,0,1-16.06-16V156.05a16,16,0,0,1,16.06-16h97.88a16,16,0,0,1,16.06,16V397.94Z"/><rect id="screen" class="cls-3" x="140.15" y="175.98" width="111.93" height="199.08"/><path id="speaker" class="cls-3" d="M208.15,165.73a1.07,1.07,0,0,1-1,1.15h-20.1a1.07,1.07,0,0,1-1-1.15v-2.58a1.07,1.07,0,0,1,1-1.15h20.1a1.07,1.07,0,0,1,1,1.15v2.58Z"/><circle id="camera" class="cls-3" cx="197.15" cy="151.98" r="3"/><ellipse id="lock" class="cls-3" cx="196.19" cy="393.98" rx="10.04" ry="10"/></g><text class="cls-4" transform="translate(196.03 101.56)">width: 100vmax</text><text class="cls-4" transform="translate(0 275.56)">height: 100vmax</text><text class="cls-4" transform="translate(373 332.56)">height: 100vmax</text><g id="Laptop"><path id="bezel-2" data-name="bezel" class="cls-2" d="M1101.15,43.06h-496a25.08,25.08,0,0,0-25,24.79V394.09h546V67.85A25.05,25.05,0,0,0,1101.15,43.06Z"/><circle id="webcam" class="cls-2" cx="854.15" cy="62.06" r="4"/><g id="bottom"><path id="Shape" class="cls-2" d="M1148,425.07H558.44c-30.65,0-51.29-10.52-51.29-15V396.49a2.75,2.75,0,0,1,3-2.43h686.11a2.75,2.75,0,0,1,3,2.43v14.13C1199.24,414.15,1183.26,425.07,1148,425.07Z"/><path id="Line" class="cls-5" d="M507.65,408.56h689.74"/></g><rect id="screen-2" data-name="screen" class="cls-3" x="602.15" y="82.06" width="501.07" height="292.01"/><path id="touchpad" class="cls-3" d="M928.15,395.06v3.09c0,2.2-4.33,2.87-7.61,2.87H786c-3.45,0-7.82-.66-7.82-2.87v-3.09"/></g><rect class="cls-1" x="602.15" y="82.06" width="501" height="501"/><line class="cls-3" x1="602.65" y1="4.25" x2="602.65" y2="36.87"/><line class="cls-3" x1="1103.15" y1="4.25" x2="1103.15" y2="36.87"/><line class="cls-3" x1="602.65" y1="20.56" x2="1103.15" y2="20.56"/><line class="cls-3" x1="494.7" y1="82.06" x2="462.1" y2="82.06"/><line class="cls-3" x1="494.7" y1="583.06" x2="462.1" y2="583.06"/><line class="cls-3" x1="478.4" y1="82.06" x2="478.4" y2="583.06"/><text class="cls-4" transform="translate(810.91 10.56)">width: 100v<tspan class="cls-6" x="63.9" y="0">m</tspan><tspan x="74.95" y="0">ax</tspan></text><line class="cls-3" x1="138.65" y1="110.06" x2="138.65" y2="129.06"/><line class="cls-3" x1="339.15" y1="110.06" x2="339.15" y2="129.06"/><line class="cls-3" x1="138.65" y1="119.56" x2="339.15" y2="119.56"/><line class="cls-3" x1="111.4" y1="176.31" x2="92.4" y2="176.31"/><line class="cls-3" x1="111.4" y1="376.81" x2="92.4" y2="376.81"/><line class="cls-3" x1="101.9" y1="176.31" x2="101.9" y2="376.81"/></g></g></svg>